<mxfile host="Electron" agent="Mozilla/5.0 (Windows NT 10.0; Win64; x64) AppleWebKit/537.36 (KHTML, like Gecko) draw.io/27.0.2 Chrome/134.0.6998.205 Electron/35.3.0 Safari/537.36" version="27.0.2">
  <diagram name="Página-1" id="DZx7SK09K_esOjIXITz1">
    <mxGraphModel dx="2626" dy="2769" grid="1" gridSize="10" guides="1" tooltips="1" connect="1" arrows="1" fold="1" page="1" pageScale="1" pageWidth="1200" pageHeight="1920" math="0" shadow="0">
      <root>
        <mxCell id="0" />
        <mxCell id="1" parent="0" />
        <mxCell id="2D2PLknFibt0iXCQKBE8-59" style="edgeStyle=orthogonalEdgeStyle;rounded=0;orthogonalLoop=1;jettySize=auto;html=1;exitX=1;exitY=0.5;exitDx=0;exitDy=0;entryX=0;entryY=0.5;entryDx=0;entryDy=0;" edge="1" parent="1" source="yBrq36ba2T_x7bs6eCfU-32" target="2D2PLknFibt0iXCQKBE8-71">
          <mxGeometry relative="1" as="geometry">
            <mxPoint x="330" y="820" as="targetPoint" />
            <Array as="points">
              <mxPoint x="290" y="70" />
              <mxPoint x="290" y="820" />
            </Array>
          </mxGeometry>
        </mxCell>
        <mxCell id="2D2PLknFibt0iXCQKBE8-26" style="edgeStyle=orthogonalEdgeStyle;rounded=0;orthogonalLoop=1;jettySize=auto;html=1;entryX=0;entryY=0.5;entryDx=0;entryDy=0;exitX=1;exitY=0.5;exitDx=0;exitDy=0;" edge="1" parent="1" source="yBrq36ba2T_x7bs6eCfU-32" target="2D2PLknFibt0iXCQKBE8-25">
          <mxGeometry relative="1" as="geometry">
            <mxPoint x="160" y="70" as="sourcePoint" />
            <mxPoint x="410" y="370" as="targetPoint" />
            <Array as="points">
              <mxPoint x="290" y="70" />
              <mxPoint x="290" y="370" />
            </Array>
          </mxGeometry>
        </mxCell>
        <mxCell id="2D2PLknFibt0iXCQKBE8-40" value="1" style="edgeLabel;html=1;align=center;verticalAlign=middle;resizable=0;points=[];" vertex="1" connectable="0" parent="2D2PLknFibt0iXCQKBE8-26">
          <mxGeometry x="0.1642" relative="1" as="geometry">
            <mxPoint as="offset" />
          </mxGeometry>
        </mxCell>
        <mxCell id="2D2PLknFibt0iXCQKBE8-41" value="N" style="edgeLabel;html=1;align=center;verticalAlign=middle;resizable=0;points=[];" vertex="1" connectable="0" parent="2D2PLknFibt0iXCQKBE8-26">
          <mxGeometry x="0.8405" y="2" relative="1" as="geometry">
            <mxPoint as="offset" />
          </mxGeometry>
        </mxCell>
        <mxCell id="yBrq36ba2T_x7bs6eCfU-69" value="" style="rounded=0;whiteSpace=wrap;html=1;fillColor=light-dark(#fbe1c1, #4b2d08);strokeColor=default;strokeWidth=2;" parent="1" vertex="1">
          <mxGeometry x="-150" y="-70" width="420" height="480" as="geometry" />
        </mxCell>
        <mxCell id="yBrq36ba2T_x7bs6eCfU-34" value="&lt;div&gt;&lt;b&gt;PK:&amp;nbsp;&lt;/b&gt;&lt;span style=&quot;font-size: 9px; text-align: left;&quot;&gt;🔑&lt;/span&gt;&lt;b&gt;&lt;br&gt;FK:&amp;nbsp;&lt;/b&gt;&lt;span style=&quot;background-color: transparent; color: light-dark(rgb(0, 0, 0), rgb(255, 255, 255)); text-align: left;&quot;&gt;&amp;nbsp;&lt;/span&gt;&lt;span style=&quot;background-color: transparent; color: light-dark(rgb(0, 0, 0), rgb(255, 255, 255)); text-wrap-mode: nowrap;&quot;&gt;&lt;font style=&quot;font-size: 9px;&quot;&gt;🗝️&lt;/font&gt;&lt;/span&gt;&lt;/div&gt;&lt;div&gt;&lt;span style=&quot;font-family: monospace;&quot;&gt;&lt;font&gt;&lt;b&gt;Campo Opcional:&amp;nbsp;&lt;/b&gt;&lt;/font&gt;&lt;font style=&quot;font-size: 9px;&quot;&gt;🔓&lt;/font&gt;&lt;/span&gt;&lt;span style=&quot;background-color: transparent; color: light-dark(rgb(0, 0, 0), rgb(255, 255, 255)); text-wrap-mode: nowrap;&quot;&gt;&lt;font style=&quot;font-size: 9px;&quot;&gt;&lt;/font&gt;&lt;/span&gt;&lt;/div&gt;&lt;div&gt;&lt;span style=&quot;font-family: monospace;&quot;&gt;&lt;b&gt;&lt;font&gt;Atributo Compuesto:&lt;/font&gt;&lt;font style=&quot;font-size: 9px;&quot;&gt;&amp;nbsp;&lt;/font&gt;&lt;/b&gt;&lt;/span&gt;&lt;span style=&quot;background-color: transparent; color: light-dark(rgb(0, 0, 0), rgb(255, 255, 255));&quot;&gt;&lt;font style=&quot;font-size: 9px;&quot;&gt;⧉&lt;/font&gt;&lt;/span&gt;&lt;/div&gt;&lt;div&gt;&lt;span style=&quot;background-color: transparent; color: light-dark(rgb(0, 0, 0), rgb(255, 255, 255));&quot;&gt;&lt;font&gt;&lt;b&gt;Atributo Calculado:&amp;nbsp;&lt;/b&gt;&lt;/font&gt;&lt;/span&gt;&lt;span style=&quot;background-color: transparent; color: light-dark(rgb(0, 0, 0), rgb(255, 255, 255));&quot;&gt;&lt;font style=&quot;font-size: 9px;&quot;&gt;ƒ&lt;/font&gt;&lt;/span&gt;&lt;/div&gt;&lt;div&gt;&lt;span style=&quot;background-color: transparent; color: light-dark(rgb(0, 0, 0), rgb(255, 255, 255));&quot;&gt;&lt;font&gt;&lt;b&gt;Atributo Heredado:&lt;/b&gt;&lt;/font&gt;&lt;font style=&quot;font-size: 9px;&quot;&gt;&amp;nbsp;&lt;/font&gt;&lt;/span&gt;&lt;span style=&quot;background-color: transparent; color: light-dark(rgb(0, 0, 0), rgb(255, 255, 255));&quot;&gt;&lt;font style=&quot;font-size: 9px;&quot;&gt;⇧&lt;/font&gt;&lt;/span&gt;&lt;/div&gt;&lt;div&gt;&lt;table&gt;&lt;tbody&gt;&lt;tr data-end=&quot;868&quot; data-start=&quot;762&quot;&gt;&lt;td data-col-size=&quot;sm&quot; data-end=&quot;773&quot; data-start=&quot;762&quot;&gt;&lt;br&gt;&lt;/td&gt;&lt;/tr&gt;&lt;/tbody&gt;&lt;/table&gt;&lt;/div&gt;" style="shape=note;size=31;whiteSpace=wrap;html=1;fillColor=#fad7ac;strokeColor=#b46504;" parent="1" vertex="1">
          <mxGeometry x="-460" y="-520" width="170" height="170" as="geometry" />
        </mxCell>
        <mxCell id="yBrq36ba2T_x7bs6eCfU-58" value="Categoria Socio" style="swimlane;childLayout=stackLayout;horizontal=1;startSize=20;horizontalStack=0;rounded=1;fontSize=14;fontStyle=0;strokeWidth=2;resizeParent=0;resizeLast=1;shadow=0;dashed=0;align=center;arcSize=4;whiteSpace=wrap;html=1;perimeterSpacing=0;strokeColor=#000000;fillColor=#FFCC99;fillStyle=auto;gradientColor=none;swimlaneFillColor=#FFFFFF;" parent="1" vertex="1">
          <mxGeometry x="735" y="5" width="180" height="110" as="geometry" />
        </mxCell>
        <mxCell id="yBrq36ba2T_x7bs6eCfU-59" value="&lt;div&gt;IdCategoria (Integer)&amp;nbsp;&lt;span style=&quot;background-color: transparent; color: light-dark(rgb(0, 0, 0), rgb(255, 255, 255));&quot;&gt;&lt;font style=&quot;font-size: 10px;&quot;&gt;🔑&lt;/font&gt;&lt;/span&gt;&lt;/div&gt;&lt;div&gt;&lt;span style=&quot;background-color: transparent; color: light-dark(rgb(0, 0, 0), rgb(255, 255, 255));&quot;&gt;&lt;font&gt;Descripcion (Vchar)&lt;/font&gt;&lt;/span&gt;&lt;/div&gt;&lt;div&gt;&lt;span style=&quot;background-color: transparent; color: light-dark(rgb(0, 0, 0), rgb(255, 255, 255));&quot;&gt;&lt;font&gt;Rango Edad (Integer)&amp;nbsp;&lt;/font&gt;&lt;/span&gt;&lt;span style=&quot;font-size: 9px; text-align: center; background-color: transparent; color: light-dark(rgb(0, 0, 0), rgb(255, 255, 255));&quot;&gt;⧉&lt;/span&gt;&lt;/div&gt;&lt;div&gt;&lt;span style=&quot;text-align: center; background-color: transparent; color: light-dark(rgb(0, 0, 0), rgb(255, 255, 255));&quot;&gt;&lt;font&gt;Tarifa (Integer)&amp;nbsp;&lt;/font&gt;&lt;/span&gt;&lt;span style=&quot;background-color: transparent; color: light-dark(rgb(0, 0, 0), rgb(255, 255, 255));&quot;&gt;ƒ&amp;nbsp;&lt;/span&gt;&lt;span style=&quot;background-color: transparent; color: light-dark(rgb(0, 0, 0), rgb(255, 255, 255));&quot;&gt;&amp;nbsp;&lt;/span&gt;&lt;/div&gt;" style="align=left;strokeColor=none;fillColor=none;spacingLeft=4;spacingRight=4;fontSize=12;verticalAlign=top;resizable=0;rotatable=0;part=1;html=1;whiteSpace=wrap;" parent="yBrq36ba2T_x7bs6eCfU-58" vertex="1">
          <mxGeometry y="20" width="180" height="90" as="geometry" />
        </mxCell>
        <mxCell id="yBrq36ba2T_x7bs6eCfU-31" value="Socio" style="swimlane;childLayout=stackLayout;horizontal=1;startSize=20;horizontalStack=0;rounded=1;fontSize=14;fontStyle=0;strokeWidth=2;resizeParent=0;resizeLast=1;shadow=0;dashed=0;align=center;arcSize=4;whiteSpace=wrap;html=1;perimeterSpacing=0;strokeColor=#000000;fillColor=#FFCC99;fillStyle=auto;gradientColor=none;swimlaneFillColor=#FFFFFF;" parent="1" vertex="1">
          <mxGeometry x="-30" y="-60" width="190" height="240" as="geometry">
            <mxRectangle x="-30" y="-60" width="80" height="30" as="alternateBounds" />
          </mxGeometry>
        </mxCell>
        <mxCell id="yBrq36ba2T_x7bs6eCfU-32" value="&lt;div style=&quot;&quot;&gt;IdPersona. (Integer)&lt;b&gt;&amp;nbsp;&lt;/b&gt;&lt;span style=&quot;color: light-dark(rgb(0, 0, 0), rgb(255, 255, 255)); background-color: transparent; font-size: 9px;&quot;&gt;🔑&amp;nbsp;&lt;/span&gt;&lt;span style=&quot;background-color: transparent; color: light-dark(rgb(0, 0, 0), rgb(255, 255, 255));&quot;&gt;&lt;/span&gt;&lt;span style=&quot;font-size: 9px; text-align: center; background-color: transparent; color: light-dark(rgb(0, 0, 0), rgb(255, 255, 255));&quot;&gt;⇧&lt;/span&gt;&lt;/div&gt;&lt;div style=&quot;&quot;&gt;&lt;span style=&quot;background-color: transparent; color: light-dark(rgb(0, 0, 0), rgb(255, 255, 255));&quot;&gt;IdSocio (Integer)&lt;/span&gt;&lt;span style=&quot;background-color: transparent; color: light-dark(rgb(0, 0, 0), rgb(255, 255, 255));&quot;&gt;.&amp;nbsp;&lt;/span&gt;&lt;font style=&quot;background-color: transparent; color: light-dark(rgb(0, 0, 0), rgb(255, 255, 255)); font-size: 9px;&quot;&gt;🔑&lt;/font&gt;&lt;/div&gt;Nombre, Apellido (Varchar).&amp;nbsp;&lt;span style=&quot;font-size: 9px; text-align: center;&quot;&gt;⧉&amp;nbsp;&lt;/span&gt;&lt;span style=&quot;font-size: 9px; text-align: center;&quot;&gt;⇧&lt;/span&gt;&lt;div&gt;DNI. (Integer)&amp;nbsp;&lt;span style=&quot;font-size: 9px; text-align: center; background-color: transparent; color: light-dark(rgb(0, 0, 0), rgb(255, 255, 255));&quot;&gt;⇧&lt;/span&gt;&lt;/div&gt;&lt;div&gt;Email. (Varchar)&amp;nbsp;&lt;span style=&quot;font-size: 9px; text-align: center; background-color: transparent; color: light-dark(rgb(0, 0, 0), rgb(255, 255, 255));&quot;&gt;⇧&lt;/span&gt;&lt;/div&gt;&lt;div&gt;Fecha Nacimiento (Date)&amp;nbsp;&lt;span style=&quot;font-size: 9px; text-align: center; background-color: transparent; color: light-dark(rgb(0, 0, 0), rgb(255, 255, 255));&quot;&gt;⧉&amp;nbsp;&lt;/span&gt;&lt;span style=&quot;font-size: 9px; text-align: center; background-color: transparent; color: light-dark(rgb(0, 0, 0), rgb(255, 255, 255));&quot;&gt;⇧&lt;/span&gt;&lt;/div&gt;&lt;div&gt;Telefono. (Integer)&amp;nbsp;&lt;span style=&quot;font-size: 9px; text-align: center;&quot;&gt;⇧&lt;/span&gt;&lt;br&gt;Telefono Em. (Integer)&amp;nbsp;&lt;/div&gt;&lt;div&gt;Obra Social, Numero de Socio. (Varchar, Integer)&lt;span style=&quot;font-family: monospace; font-size: 9px; text-align: center; background-color: transparent; color: light-dark(rgb(0, 0, 0), rgb(255, 255, 255));&quot;&gt;🔓&amp;nbsp;&lt;/span&gt;&lt;span style=&quot;font-size: 9px; text-align: center; background-color: transparent; color: light-dark(rgb(0, 0, 0), rgb(255, 255, 255));&quot;&gt;⧉&amp;nbsp;&lt;/span&gt;&lt;/div&gt;&lt;div&gt;Metodo de pago. (Integer)&amp;nbsp;&lt;span style=&quot;font-size: 9px; text-align: center; text-wrap-mode: nowrap; background-color: transparent; color: light-dark(rgb(0, 0, 0), rgb(255, 255, 255));&quot;&gt;🗝️&lt;/span&gt;&lt;/div&gt;&lt;div&gt;Edad. (Integer)&amp;nbsp;&lt;span style=&quot;background-color: transparent; color: light-dark(rgb(0, 0, 0), rgb(255, 255, 255));&quot;&gt;ƒ&amp;nbsp;&lt;/span&gt;&lt;span style=&quot;font-size: 9px; text-align: center; background-color: transparent; color: light-dark(rgb(0, 0, 0), rgb(255, 255, 255));&quot;&gt;⇧&lt;/span&gt;&lt;/div&gt;&lt;div&gt;Categoria Socio. (Integer)&amp;nbsp;&lt;span style=&quot;background-color: transparent; color: light-dark(rgb(0, 0, 0), rgb(255, 255, 255));&quot;&gt;ƒ&amp;nbsp;&lt;/span&gt;&lt;span style=&quot;background-color: transparent; color: light-dark(rgb(0, 0, 0), rgb(255, 255, 255));&quot;&gt;&amp;nbsp;&lt;/span&gt;&lt;span style=&quot;background-color: transparent; color: light-dark(rgb(0, 0, 0), rgb(255, 255, 255)); text-wrap-mode: nowrap; text-align: center;&quot;&gt;&lt;font style=&quot;font-size: 9px;&quot;&gt;🗝️&lt;/font&gt;&lt;/span&gt;&lt;/div&gt;&lt;div&gt;&lt;br&gt;&lt;/div&gt;&lt;div&gt;&lt;br&gt;&lt;/div&gt;" style="align=left;strokeColor=none;fillColor=none;spacingLeft=4;spacingRight=4;fontSize=12;verticalAlign=top;resizable=0;rotatable=0;part=1;html=1;whiteSpace=wrap;" parent="yBrq36ba2T_x7bs6eCfU-31" vertex="1">
          <mxGeometry y="20" width="190" height="220" as="geometry" />
        </mxCell>
        <mxCell id="yBrq36ba2T_x7bs6eCfU-71" value="" style="rounded=0;whiteSpace=wrap;html=1;strokeWidth=2;perimeterSpacing=0;" parent="1" vertex="1">
          <mxGeometry x="-150" y="190" width="420" height="280" as="geometry" />
        </mxCell>
        <mxCell id="yBrq36ba2T_x7bs6eCfU-72" value="Menor" style="swimlane;childLayout=stackLayout;horizontal=1;startSize=20;horizontalStack=0;rounded=1;fontSize=14;fontStyle=0;strokeWidth=2;resizeParent=0;resizeLast=1;shadow=0;dashed=0;align=center;arcSize=4;whiteSpace=wrap;html=1;perimeterSpacing=0;strokeColor=#000000;fillColor=#FFCC99;fillStyle=auto;gradientColor=none;swimlaneFillColor=#FFFFFF;" parent="1" vertex="1">
          <mxGeometry x="-140" y="195" width="190" height="250" as="geometry" />
        </mxCell>
        <mxCell id="yBrq36ba2T_x7bs6eCfU-73" value="&lt;div&gt;IdPersona. (Integer)&lt;b&gt;&amp;nbsp;&lt;/b&gt;&lt;span style=&quot;font-size: 9px; background-color: transparent; color: light-dark(rgb(0, 0, 0), rgb(255, 255, 255));&quot;&gt;🔑&lt;/span&gt;&lt;span style=&quot;background-color: transparent; color: light-dark(rgb(0, 0, 0), rgb(255, 255, 255)); font-size: 9px; text-align: center;&quot;&gt;⇧&lt;/span&gt;&lt;/div&gt;&lt;div&gt;&lt;span style=&quot;color: rgba(0, 0, 0, 0); font-family: monospace; font-size: 0px; text-wrap-mode: nowrap; background-color: transparent;&quot;&gt;%3CmxGraphModel%3E%3Croot%3E%3CmxCell%20id%3D%220%22%2F%3E%3CmxCell%20id%3D%221%22%20parent%3D%220%22%2F%3E%3CmxCell%20id%3D%222%22%20value%3D%22%22%20style%3D%22rounded%3D0%3BwhiteSpace%3Dwrap%3Bhtml%3D1%3B%22%20vertex%3D%221%22%20parent%3D%221%22%3E%3CmxGeometry%20x%3D%22310%22%20y%3D%22310%22%20width%3D%22190%22%20height%3D%2210%22%20as%3D%22geometry%22%2F%3E%3C%2FmxCell%3E%3C%2Froot%3E%3C%2FmxGraphModel%3&lt;/span&gt;&lt;span style=&quot;background-color: transparent; color: light-dark(rgb(0, 0, 0), rgb(255, 255, 255));&quot;&gt;IdSocio (Integer)&lt;/span&gt;&lt;span style=&quot;background-color: transparent; color: light-dark(rgb(0, 0, 0), rgb(255, 255, 255));&quot;&gt;.&amp;nbsp;&lt;/span&gt;&lt;font style=&quot;background-color: transparent; color: light-dark(rgb(0, 0, 0), rgb(255, 255, 255)); font-size: 9px;&quot;&gt;🔑&amp;nbsp;&lt;/font&gt;&lt;span style=&quot;background-color: transparent; color: light-dark(rgb(0, 0, 0), rgb(255, 255, 255)); font-size: 9px; text-align: center;&quot;&gt;⇧&lt;/span&gt;&lt;/div&gt;Nombre, Apellido (Varchar).&amp;nbsp;&lt;span style=&quot;background-color: transparent; color: light-dark(rgb(0, 0, 0), rgb(255, 255, 255)); font-size: 9px; text-align: center;&quot;&gt;⧉&amp;nbsp;&lt;/span&gt;&lt;span style=&quot;background-color: transparent; color: light-dark(rgb(0, 0, 0), rgb(255, 255, 255)); font-size: 9px; text-align: center;&quot;&gt;⇧&lt;/span&gt;&lt;div&gt;&lt;div&gt;DNI. (Integer)&amp;nbsp;&lt;span style=&quot;font-size: 9px; text-align: center; background-color: transparent; color: light-dark(rgb(0, 0, 0), rgb(255, 255, 255));&quot;&gt;⇧&lt;/span&gt;&lt;/div&gt;&lt;div&gt;Email. (Varchar)&amp;nbsp;&lt;span style=&quot;font-size: 9px; text-align: center; background-color: transparent; color: light-dark(rgb(0, 0, 0), rgb(255, 255, 255));&quot;&gt;⇧&lt;/span&gt;&lt;/div&gt;&lt;div&gt;Fecha Nacimiento (Date)&amp;nbsp;&lt;span style=&quot;font-size: 9px; text-align: center; background-color: transparent; color: light-dark(rgb(0, 0, 0), rgb(255, 255, 255));&quot;&gt;⧉&amp;nbsp;&lt;/span&gt;&lt;span style=&quot;font-size: 9px; text-align: center; background-color: transparent; color: light-dark(rgb(0, 0, 0), rgb(255, 255, 255));&quot;&gt;⇧&lt;/span&gt;&lt;/div&gt;&lt;div&gt;Telefono. (Integer)&amp;nbsp;&lt;span style=&quot;font-size: 9px; text-align: center;&quot;&gt;⇧&lt;/span&gt;&lt;br&gt;Telefono Em. (Integer)&amp;nbsp;&lt;span style=&quot;font-size: 9px; text-align: center; background-color: transparent; color: light-dark(rgb(0, 0, 0), rgb(255, 255, 255));&quot;&gt;⇧&lt;/span&gt;&lt;/div&gt;&lt;div&gt;Obra Social, Numero de&amp;nbsp;&lt;span style=&quot;background-color: transparent; color: light-dark(rgb(0, 0, 0), rgb(255, 255, 255));&quot;&gt;Socio.&amp;nbsp;&lt;/span&gt;&lt;span style=&quot;background-color: transparent; color: light-dark(rgb(0, 0, 0), rgb(255, 255, 255));&quot;&gt;(Varchar, Integer)&lt;/span&gt;&lt;span style=&quot;background-color: transparent; color: light-dark(rgb(0, 0, 0), rgb(255, 255, 255)); font-family: monospace; font-size: 9px; text-align: center;&quot;&gt;🔓&amp;nbsp;&lt;/span&gt;&lt;span style=&quot;background-color: transparent; color: light-dark(rgb(0, 0, 0), rgb(255, 255, 255)); font-size: 9px; text-align: center;&quot;&gt;⧉&amp;nbsp;&lt;/span&gt;&lt;span style=&quot;background-color: transparent; color: light-dark(rgb(0, 0, 0), rgb(255, 255, 255)); font-size: 9px; text-align: center;&quot;&gt;⇧&lt;/span&gt;&lt;/div&gt;&lt;div&gt;Metodo de pago. (Varchar)&amp;nbsp;&lt;span style=&quot;font-size: 9px; text-align: center; background-color: transparent; color: light-dark(rgb(0, 0, 0), rgb(255, 255, 255));&quot;&gt;⇧&lt;/span&gt;&lt;/div&gt;&lt;div&gt;Edad. (Integer)&amp;nbsp;&lt;span style=&quot;background-color: transparent; color: light-dark(rgb(0, 0, 0), rgb(255, 255, 255));&quot;&gt;ƒ&amp;nbsp;&lt;/span&gt;&lt;span style=&quot;font-size: 9px; text-align: center; background-color: transparent; color: light-dark(rgb(0, 0, 0), rgb(255, 255, 255));&quot;&gt;⇧&lt;/span&gt;&lt;/div&gt;&lt;div&gt;Categoria Socio. (Integer)&amp;nbsp;&lt;span style=&quot;background-color: transparent; color: light-dark(rgb(0, 0, 0), rgb(255, 255, 255));&quot;&gt;ƒ&amp;nbsp;&lt;/span&gt;&lt;span style=&quot;background-color: transparent; color: light-dark(rgb(0, 0, 0), rgb(255, 255, 255));&quot;&gt;&amp;nbsp;&lt;/span&gt;&lt;span style=&quot;background-color: transparent; color: light-dark(rgb(0, 0, 0), rgb(255, 255, 255)); text-wrap-mode: nowrap; text-align: center;&quot;&gt;&lt;font style=&quot;font-size: 9px;&quot;&gt;🗝️&lt;/font&gt;&lt;/span&gt;&lt;span style=&quot;background-color: transparent; color: light-dark(rgb(0, 0, 0), rgb(255, 255, 255));&quot;&gt;&amp;nbsp;&lt;/span&gt;&lt;span style=&quot;background-color: transparent; color: light-dark(rgb(0, 0, 0), rgb(255, 255, 255)); font-size: 9px; text-align: center;&quot;&gt;⇧&lt;/span&gt;&lt;/div&gt;&lt;div&gt;IdResponsable. (Integer)&amp;nbsp;&lt;span style=&quot;text-wrap-mode: nowrap; text-align: center;&quot;&gt;&lt;font style=&quot;font-size: 9px;&quot;&gt;🗝️&lt;/font&gt;&lt;/span&gt;&lt;br&gt;&lt;/div&gt;&lt;div&gt;&lt;br&gt;&lt;/div&gt;&lt;/div&gt;" style="align=left;strokeColor=none;fillColor=none;spacingLeft=4;spacingRight=4;fontSize=12;verticalAlign=top;resizable=0;rotatable=0;part=1;html=1;whiteSpace=wrap;" parent="yBrq36ba2T_x7bs6eCfU-72" vertex="1">
          <mxGeometry y="20" width="190" height="230" as="geometry" />
        </mxCell>
        <mxCell id="yBrq36ba2T_x7bs6eCfU-75" value="Mayor" style="swimlane;childLayout=stackLayout;horizontal=1;startSize=20;horizontalStack=0;rounded=1;fontSize=14;fontStyle=0;strokeWidth=2;resizeParent=0;resizeLast=1;shadow=0;dashed=0;align=center;arcSize=4;whiteSpace=wrap;html=1;perimeterSpacing=0;strokeColor=#000000;fillColor=#FFCC99;fillStyle=auto;gradientColor=none;swimlaneFillColor=#FFFFFF;" parent="1" vertex="1">
          <mxGeometry x="60" y="195" width="190" height="250" as="geometry" />
        </mxCell>
        <mxCell id="yBrq36ba2T_x7bs6eCfU-76" value="&lt;div style=&quot;&quot;&gt;IdPersona. (Integer)&lt;b&gt;&amp;nbsp;&lt;/b&gt;&lt;span style=&quot;color: light-dark(rgb(0, 0, 0), rgb(255, 255, 255)); background-color: transparent; font-size: 9px;&quot;&gt;🔑&lt;/span&gt;&lt;span style=&quot;color: light-dark(rgb(0, 0, 0), rgb(255, 255, 255)); background-color: transparent; font-size: 9px; text-align: center;&quot;&gt;⇧&lt;/span&gt;&lt;span style=&quot;background-color: transparent; color: light-dark(rgb(0, 0, 0), rgb(255, 255, 255));&quot;&gt;&lt;/span&gt;&lt;/div&gt;&lt;div style=&quot;&quot;&gt;&lt;span style=&quot;background-color: transparent; color: light-dark(rgb(0, 0, 0), rgb(255, 255, 255));&quot;&gt;IdSocio (Integer)&lt;/span&gt;&lt;span style=&quot;background-color: transparent; color: light-dark(rgb(0, 0, 0), rgb(255, 255, 255));&quot;&gt;.&amp;nbsp;&lt;/span&gt;&lt;font style=&quot;background-color: transparent; color: light-dark(rgb(0, 0, 0), rgb(255, 255, 255)); font-size: 9px;&quot;&gt;🔑&amp;nbsp;&lt;/font&gt;&lt;span style=&quot;font-size: 9px; text-align: center; background-color: transparent; color: light-dark(rgb(0, 0, 0), rgb(255, 255, 255));&quot;&gt;⇧&lt;/span&gt;&lt;/div&gt;Nombre, Apellido (Varchar).&amp;nbsp;&lt;span style=&quot;background-color: transparent; color: light-dark(rgb(0, 0, 0), rgb(255, 255, 255)); font-size: 9px; text-align: center;&quot;&gt;⧉&amp;nbsp;&lt;/span&gt;&lt;span style=&quot;background-color: transparent; color: light-dark(rgb(0, 0, 0), rgb(255, 255, 255)); font-size: 9px; text-align: center;&quot;&gt;⇧&lt;/span&gt;&lt;div&gt;&lt;div&gt;DNI. (Integer)&amp;nbsp;&lt;span style=&quot;font-size: 9px; text-align: center; background-color: transparent; color: light-dark(rgb(0, 0, 0), rgb(255, 255, 255));&quot;&gt;⇧&lt;/span&gt;&lt;/div&gt;&lt;div&gt;Email. (Varchar)&amp;nbsp;&lt;span style=&quot;font-size: 9px; text-align: center; background-color: transparent; color: light-dark(rgb(0, 0, 0), rgb(255, 255, 255));&quot;&gt;⇧&lt;/span&gt;&lt;/div&gt;&lt;div&gt;Fecha Nacimiento (Date)&amp;nbsp;&lt;span style=&quot;font-size: 9px; text-align: center; background-color: transparent; color: light-dark(rgb(0, 0, 0), rgb(255, 255, 255));&quot;&gt;⧉&amp;nbsp;&lt;/span&gt;&lt;span style=&quot;font-size: 9px; text-align: center; background-color: transparent; color: light-dark(rgb(0, 0, 0), rgb(255, 255, 255));&quot;&gt;⇧&lt;/span&gt;&lt;/div&gt;&lt;div&gt;Telefono. (Integer)&amp;nbsp;&lt;span style=&quot;font-size: 9px; text-align: center;&quot;&gt;⇧&lt;/span&gt;&lt;br&gt;Telefono Em. (Integer)&amp;nbsp;&lt;span style=&quot;font-size: 9px; text-align: center; background-color: transparent; color: light-dark(rgb(0, 0, 0), rgb(255, 255, 255));&quot;&gt;⇧&lt;/span&gt;&lt;/div&gt;&lt;div&gt;Obra Social, Numero de Socio.&amp;nbsp;&lt;span style=&quot;background-color: transparent; color: light-dark(rgb(0, 0, 0), rgb(255, 255, 255));&quot;&gt;(Varchar, Integer)&lt;/span&gt;&lt;span style=&quot;background-color: transparent; color: light-dark(rgb(0, 0, 0), rgb(255, 255, 255)); font-family: monospace; font-size: 9px; text-align: center;&quot;&gt;🔓&amp;nbsp;&lt;/span&gt;&lt;span style=&quot;background-color: transparent; color: light-dark(rgb(0, 0, 0), rgb(255, 255, 255)); font-size: 9px; text-align: center;&quot;&gt;⧉&amp;nbsp;&lt;/span&gt;&lt;span style=&quot;background-color: transparent; color: light-dark(rgb(0, 0, 0), rgb(255, 255, 255)); font-size: 9px; text-align: center;&quot;&gt;⇧&lt;/span&gt;&lt;/div&gt;&lt;div&gt;Metodo de pago. (Varchar)&amp;nbsp;&lt;span style=&quot;font-size: 9px; text-align: center; background-color: transparent; color: light-dark(rgb(0, 0, 0), rgb(255, 255, 255));&quot;&gt;⇧&lt;/span&gt;&lt;/div&gt;&lt;div&gt;Edad. (Integer)&amp;nbsp;&lt;span style=&quot;background-color: transparent; color: light-dark(rgb(0, 0, 0), rgb(255, 255, 255));&quot;&gt;ƒ&amp;nbsp;&lt;/span&gt;&lt;span style=&quot;font-size: 9px; text-align: center; background-color: transparent; color: light-dark(rgb(0, 0, 0), rgb(255, 255, 255));&quot;&gt;⇧&lt;/span&gt;&lt;/div&gt;&lt;div&gt;Categoria Socio. (Integer)&amp;nbsp;&lt;span style=&quot;background-color: transparent; color: light-dark(rgb(0, 0, 0), rgb(255, 255, 255));&quot;&gt;ƒ&amp;nbsp;&lt;/span&gt;&lt;span style=&quot;background-color: transparent; color: light-dark(rgb(0, 0, 0), rgb(255, 255, 255)); text-wrap-mode: nowrap; text-align: center;&quot;&gt;&lt;font style=&quot;font-size: 9px;&quot;&gt;🗝️&amp;nbsp;&lt;/font&gt;&lt;/span&gt;&lt;span style=&quot;background-color: transparent; color: light-dark(rgb(0, 0, 0), rgb(255, 255, 255)); font-size: 9px; text-align: center;&quot;&gt;⇧&lt;/span&gt;&lt;/div&gt;&lt;div&gt;&lt;br&gt;&lt;/div&gt;&lt;div&gt;&lt;br&gt;&lt;/div&gt;&lt;/div&gt;" style="align=left;strokeColor=none;fillColor=none;spacingLeft=4;spacingRight=4;fontSize=12;verticalAlign=top;resizable=0;rotatable=0;part=1;html=1;whiteSpace=wrap;" parent="yBrq36ba2T_x7bs6eCfU-75" vertex="1">
          <mxGeometry y="20" width="190" height="230" as="geometry" />
        </mxCell>
        <mxCell id="yBrq36ba2T_x7bs6eCfU-78" value="" style="rounded=0;whiteSpace=wrap;html=1;fillColor=#ffcc99;strokeColor=#36393d;gradientColor=none;strokeWidth=2;" parent="1" vertex="1">
          <mxGeometry x="-460" y="-330" width="730" height="260" as="geometry" />
        </mxCell>
        <mxCell id="yBrq36ba2T_x7bs6eCfU-79" value="" style="rounded=0;whiteSpace=wrap;html=1;strokeWidth=2;perimeterSpacing=0;" parent="1" vertex="1">
          <mxGeometry x="-460" y="-70" width="310" height="540" as="geometry" />
        </mxCell>
        <mxCell id="yBrq36ba2T_x7bs6eCfU-38" value="Responsable a Cargo" style="swimlane;childLayout=stackLayout;horizontal=1;startSize=20;horizontalStack=0;rounded=1;fontSize=14;fontStyle=0;strokeWidth=2;resizeParent=0;resizeLast=1;shadow=0;dashed=0;align=center;arcSize=4;whiteSpace=wrap;html=1;perimeterSpacing=0;strokeColor=#000000;fillColor=#FFCC99;fillStyle=auto;gradientColor=none;swimlaneFillColor=#FFFFFF;" parent="1" vertex="1">
          <mxGeometry x="-410" y="-55" width="190" height="210" as="geometry" />
        </mxCell>
        <mxCell id="yBrq36ba2T_x7bs6eCfU-39" value="&lt;div&gt;IdPersona. (Integer)&lt;b&gt;&amp;nbsp;&lt;/b&gt;&lt;span style=&quot;color: light-dark(rgb(0, 0, 0), rgb(255, 255, 255)); background-color: transparent; font-size: 9px;&quot;&gt;🔑&amp;nbsp;&lt;/span&gt;&lt;span style=&quot;font-size: 9px; text-align: center;&quot;&gt;⇧&lt;/span&gt;&lt;br&gt;IdResponsable. (Integer)&lt;b&gt;&amp;nbsp;&lt;/b&gt;&lt;span style=&quot;font-size: 9px; background-color: transparent; color: light-dark(rgb(0, 0, 0), rgb(255, 255, 255));&quot;&gt;🔑&lt;/span&gt;&lt;/div&gt;Nombre, Apellido. (Varchar)&amp;nbsp;&lt;span style=&quot;font-size: 9px; text-align: center;&quot;&gt;⧉&amp;nbsp;&lt;/span&gt;&lt;span style=&quot;font-size: 9px; text-align: center;&quot;&gt;⇧&lt;/span&gt;&lt;div&gt;DNI. (integer)&amp;nbsp;&lt;span style=&quot;font-size: 9px; text-align: center;&quot;&gt;⇧&lt;/span&gt;&lt;br&gt;&lt;div&gt;Email. (Varchar)&amp;nbsp;&lt;span style=&quot;font-size: 9px; text-align: center; background-color: transparent; color: light-dark(rgb(0, 0, 0), rgb(255, 255, 255));&quot;&gt;⇧&lt;/span&gt;&lt;/div&gt;&lt;div&gt;Fecha Nacimiento. (Date)&amp;nbsp;&lt;span style=&quot;font-size: 9px; text-align: center; background-color: transparent; color: light-dark(rgb(0, 0, 0), rgb(255, 255, 255));&quot;&gt;⧉&amp;nbsp;&lt;/span&gt;&lt;span style=&quot;font-size: 9px; text-align: center; background-color: transparent; color: light-dark(rgb(0, 0, 0), rgb(255, 255, 255));&quot;&gt;⇧&lt;/span&gt;&lt;/div&gt;&lt;div&gt;Telefono. (Integer)&amp;nbsp;&lt;span style=&quot;font-size: 9px; text-align: center; background-color: transparent; color: light-dark(rgb(0, 0, 0), rgb(255, 255, 255));&quot;&gt;⇧&lt;/span&gt;&lt;/div&gt;&lt;div&gt;Parentesco. (Varchar)&lt;/div&gt;&lt;div&gt;&lt;br&gt;&lt;/div&gt;&lt;div&gt;&lt;br&gt;&lt;/div&gt;&lt;/div&gt;" style="align=left;strokeColor=none;fillColor=none;spacingLeft=4;spacingRight=4;fontSize=12;verticalAlign=top;resizable=0;rotatable=0;part=1;html=1;whiteSpace=wrap;" parent="yBrq36ba2T_x7bs6eCfU-38" vertex="1">
          <mxGeometry y="20" width="190" height="190" as="geometry" />
        </mxCell>
        <mxCell id="yBrq36ba2T_x7bs6eCfU-80" value="Persona" style="swimlane;childLayout=stackLayout;horizontal=1;startSize=20;horizontalStack=0;rounded=1;fontSize=14;fontStyle=0;strokeWidth=2;resizeParent=0;resizeLast=1;shadow=0;dashed=0;align=center;arcSize=4;whiteSpace=wrap;html=1;perimeterSpacing=0;strokeColor=#000000;fillColor=#FFCC99;fillStyle=auto;gradientColor=none;swimlaneFillColor=#FFFFFF;" parent="1" vertex="1">
          <mxGeometry x="-190" y="-305" width="190" height="210" as="geometry" />
        </mxCell>
        <mxCell id="yBrq36ba2T_x7bs6eCfU-81" value="&lt;div&gt;IdPersona. (Integer)&lt;b&gt;&amp;nbsp;&lt;/b&gt;&lt;span style=&quot;font-size: 9px; background-color: transparent; color: light-dark(rgb(0, 0, 0), rgb(255, 255, 255));&quot;&gt;🔑&lt;/span&gt;&lt;/div&gt;Nombre, Apellido. (Varchar)&amp;nbsp;&lt;span style=&quot;font-size: 9px; text-align: center;&quot;&gt;⧉&lt;/span&gt;&lt;div&gt;DNI. (integer)&lt;br&gt;&lt;div&gt;Email. (Varchar)&lt;/div&gt;&lt;div&gt;Fecha Nacimiento. (Date)&amp;nbsp;&lt;span style=&quot;font-size: 9px; text-align: center; background-color: transparent; color: light-dark(rgb(0, 0, 0), rgb(255, 255, 255));&quot;&gt;⧉&lt;/span&gt;&lt;/div&gt;&lt;div&gt;Telefono. (Integer)&lt;/div&gt;&lt;div&gt;&lt;br&gt;&lt;/div&gt;&lt;div&gt;&lt;br&gt;&lt;/div&gt;&lt;/div&gt;" style="align=left;strokeColor=none;fillColor=none;spacingLeft=4;spacingRight=4;fontSize=12;verticalAlign=top;resizable=0;rotatable=0;part=1;html=1;whiteSpace=wrap;" parent="yBrq36ba2T_x7bs6eCfU-80" vertex="1">
          <mxGeometry y="20" width="190" height="190" as="geometry" />
        </mxCell>
        <mxCell id="yBrq36ba2T_x7bs6eCfU-83" style="rounded=1;orthogonalLoop=1;jettySize=auto;html=1;exitX=0.5;exitY=1;exitDx=0;exitDy=0;entryX=0.5;entryY=1;entryDx=0;entryDy=0;strokeWidth=2;elbow=vertical;edgeStyle=orthogonalEdgeStyle;" parent="1" source="yBrq36ba2T_x7bs6eCfU-39" target="yBrq36ba2T_x7bs6eCfU-73" edge="1">
          <mxGeometry relative="1" as="geometry" />
        </mxCell>
        <mxCell id="yBrq36ba2T_x7bs6eCfU-85" value="N" style="edgeLabel;html=1;align=center;verticalAlign=middle;resizable=0;points=[];" parent="yBrq36ba2T_x7bs6eCfU-83" vertex="1" connectable="0">
          <mxGeometry x="0.7643" y="1" relative="1" as="geometry">
            <mxPoint as="offset" />
          </mxGeometry>
        </mxCell>
        <mxCell id="yBrq36ba2T_x7bs6eCfU-86" value="1" style="edgeLabel;html=1;align=center;verticalAlign=middle;resizable=0;points=[];" parent="yBrq36ba2T_x7bs6eCfU-83" vertex="1" connectable="0">
          <mxGeometry x="-0.8571" relative="1" as="geometry">
            <mxPoint as="offset" />
          </mxGeometry>
        </mxCell>
        <mxCell id="yBrq36ba2T_x7bs6eCfU-84" value="A cada menor se la&amp;nbsp;&lt;div&gt;asigna un responsable&lt;/div&gt;" style="text;html=1;align=center;verticalAlign=middle;resizable=0;points=[];autosize=1;strokeColor=none;fillColor=none;" parent="1" vertex="1">
          <mxGeometry x="-460" y="270" width="140" height="40" as="geometry" />
        </mxCell>
        <mxCell id="yBrq36ba2T_x7bs6eCfU-87" value="Grupo Familiar" style="swimlane;childLayout=stackLayout;horizontal=1;startSize=20;horizontalStack=0;rounded=1;fontSize=14;fontStyle=0;strokeWidth=2;resizeParent=0;resizeLast=1;shadow=0;dashed=0;align=center;arcSize=4;whiteSpace=wrap;html=1;perimeterSpacing=0;strokeColor=#000000;fillColor=#FFCC99;fillStyle=auto;gradientColor=none;swimlaneFillColor=#FFFFFF;" parent="1" vertex="1">
          <mxGeometry x="735" y="125" width="180" height="120" as="geometry" />
        </mxCell>
        <mxCell id="yBrq36ba2T_x7bs6eCfU-88" value="IdGrupoFam (Integer)&amp;nbsp;&lt;span style=&quot;background-color: transparent; color: light-dark(rgb(0, 0, 0), rgb(255, 255, 255));&quot;&gt;&lt;font style=&quot;font-size: 10px;&quot;&gt;🔑&lt;/font&gt;&lt;br&gt;Nombre_Fam (Varchar)&lt;/span&gt;&lt;span style=&quot;background-color: transparent; color: light-dark(rgb(0, 0, 0), rgb(255, 255, 255));&quot;&gt;&amp;nbsp;&lt;/span&gt;&lt;span style=&quot;background-color: transparent; color: light-dark(rgb(0, 0, 0), rgb(255, 255, 255));&quot;&gt;&amp;nbsp;&lt;/span&gt;" style="align=left;strokeColor=none;fillColor=none;spacingLeft=4;spacingRight=4;fontSize=12;verticalAlign=top;resizable=0;rotatable=0;part=1;html=1;whiteSpace=wrap;" parent="yBrq36ba2T_x7bs6eCfU-87" vertex="1">
          <mxGeometry y="20" width="180" height="100" as="geometry" />
        </mxCell>
        <mxCell id="yBrq36ba2T_x7bs6eCfU-92" value="Jerarquia Exclusiva" style="text;html=1;align=center;verticalAlign=middle;resizable=0;points=[];autosize=1;strokeColor=none;fillColor=none;" parent="1" vertex="1">
          <mxGeometry x="-20" y="445" width="130" height="30" as="geometry" />
        </mxCell>
        <mxCell id="yBrq36ba2T_x7bs6eCfU-96" value="Cada Socio&amp;nbsp;&lt;div&gt;Pertenece&amp;nbsp;&lt;/div&gt;&lt;div&gt;&lt;span style=&quot;background-color: transparent; color: light-dark(rgb(0, 0, 0), rgb(255, 255, 255));&quot;&gt;a una categoria&lt;/span&gt;&lt;/div&gt;" style="text;html=1;align=center;verticalAlign=middle;resizable=0;points=[];autosize=1;strokeColor=none;fillColor=none;" parent="1" vertex="1">
          <mxGeometry x="770" y="-60" width="110" height="60" as="geometry" />
        </mxCell>
        <mxCell id="yBrq36ba2T_x7bs6eCfU-98" value="Cada Socio&amp;nbsp;&lt;div&gt;pertenece a una familia&lt;/div&gt;" style="text;html=1;align=center;verticalAlign=middle;resizable=0;points=[];autosize=1;strokeColor=none;fillColor=none;" parent="1" vertex="1">
          <mxGeometry x="435" y="245" width="150" height="40" as="geometry" />
        </mxCell>
        <mxCell id="yBrq36ba2T_x7bs6eCfU-101" value="" style="shape=curlyBracket;whiteSpace=wrap;html=1;rounded=1;flipH=1;labelPosition=right;verticalLabelPosition=middle;align=left;verticalAlign=middle;" parent="1" vertex="1">
          <mxGeometry x="925" y="5" width="20" height="235" as="geometry" />
        </mxCell>
        <mxCell id="yBrq36ba2T_x7bs6eCfU-102" value="Si un Socio pertenece a grupo familiar&lt;br&gt;recibe 15% de descuento en su tarifa" style="text;html=1;align=center;verticalAlign=middle;resizable=0;points=[];autosize=1;strokeColor=none;fillColor=none;" parent="1" vertex="1">
          <mxGeometry x="940" y="102.5" width="230" height="40" as="geometry" />
        </mxCell>
        <mxCell id="2D2PLknFibt0iXCQKBE8-1" value="Miembro Familia" style="swimlane;childLayout=stackLayout;horizontal=1;startSize=20;horizontalStack=0;rounded=1;fontSize=14;fontStyle=0;strokeWidth=2;resizeParent=0;resizeLast=1;shadow=0;dashed=0;align=center;arcSize=4;whiteSpace=wrap;html=1;perimeterSpacing=0;strokeColor=#000000;fillColor=#FFCC99;fillStyle=auto;gradientColor=none;swimlaneFillColor=#FFFFFF;" vertex="1" parent="1">
          <mxGeometry x="420" y="125" width="180" height="120" as="geometry" />
        </mxCell>
        <mxCell id="2D2PLknFibt0iXCQKBE8-2" value="IdSocio (Integer)&amp;nbsp;&lt;span style=&quot;color: light-dark(rgb(0, 0, 0), rgb(255, 255, 255)); background-color: transparent;&quot;&gt;&amp;nbsp;&lt;/span&gt;&lt;span style=&quot;color: light-dark(rgb(0, 0, 0), rgb(255, 255, 255)); text-align: center; text-wrap-mode: nowrap; background-color: transparent;&quot;&gt;&lt;font style=&quot;font-size: 9px;&quot;&gt;🗝️&lt;/font&gt;&lt;/span&gt;&lt;div&gt;IdGrupoFam (Integer)&amp;nbsp;&lt;span style=&quot;background-color: transparent; color: light-dark(rgb(0, 0, 0), rgb(255, 255, 255));&quot;&gt;&amp;nbsp;&lt;/span&gt;&lt;span style=&quot;background-color: transparent; color: light-dark(rgb(0, 0, 0), rgb(255, 255, 255)); text-wrap-mode: nowrap; text-align: center;&quot;&gt;&lt;font style=&quot;font-size: 9px;&quot;&gt;🗝️&lt;/font&gt;&lt;/span&gt;&lt;/div&gt;" style="align=left;strokeColor=none;fillColor=none;spacingLeft=4;spacingRight=4;fontSize=12;verticalAlign=top;resizable=0;rotatable=0;part=1;html=1;whiteSpace=wrap;" vertex="1" parent="2D2PLknFibt0iXCQKBE8-1">
          <mxGeometry y="20" width="180" height="100" as="geometry" />
        </mxCell>
        <mxCell id="2D2PLknFibt0iXCQKBE8-3" style="edgeStyle=orthogonalEdgeStyle;rounded=0;orthogonalLoop=1;jettySize=auto;html=1;exitX=1;exitY=0.5;exitDx=0;exitDy=0;entryX=0;entryY=0.5;entryDx=0;entryDy=0;" edge="1" parent="1" source="yBrq36ba2T_x7bs6eCfU-32" target="yBrq36ba2T_x7bs6eCfU-59">
          <mxGeometry relative="1" as="geometry" />
        </mxCell>
        <mxCell id="2D2PLknFibt0iXCQKBE8-6" value="1" style="edgeLabel;html=1;align=center;verticalAlign=middle;resizable=0;points=[];" vertex="1" connectable="0" parent="2D2PLknFibt0iXCQKBE8-3">
          <mxGeometry x="0.9113" y="1" relative="1" as="geometry">
            <mxPoint as="offset" />
          </mxGeometry>
        </mxCell>
        <mxCell id="2D2PLknFibt0iXCQKBE8-7" value="1" style="edgeLabel;html=1;align=center;verticalAlign=middle;resizable=0;points=[];" vertex="1" connectable="0" parent="2D2PLknFibt0iXCQKBE8-3">
          <mxGeometry x="-0.2452" relative="1" as="geometry">
            <mxPoint as="offset" />
          </mxGeometry>
        </mxCell>
        <mxCell id="2D2PLknFibt0iXCQKBE8-4" style="edgeStyle=orthogonalEdgeStyle;rounded=0;orthogonalLoop=1;jettySize=auto;html=1;exitX=1;exitY=0.5;exitDx=0;exitDy=0;entryX=0;entryY=0.5;entryDx=0;entryDy=0;" edge="1" parent="1" source="yBrq36ba2T_x7bs6eCfU-32" target="2D2PLknFibt0iXCQKBE8-2">
          <mxGeometry relative="1" as="geometry" />
        </mxCell>
        <mxCell id="2D2PLknFibt0iXCQKBE8-9" value="1" style="edgeLabel;html=1;align=center;verticalAlign=middle;resizable=0;points=[];" vertex="1" connectable="0" parent="2D2PLknFibt0iXCQKBE8-4">
          <mxGeometry x="0.7117" relative="1" as="geometry">
            <mxPoint as="offset" />
          </mxGeometry>
        </mxCell>
        <mxCell id="2D2PLknFibt0iXCQKBE8-8" value="1" style="edgeLabel;html=1;align=center;verticalAlign=middle;resizable=0;points=[];" vertex="1" connectable="0" parent="2D2PLknFibt0iXCQKBE8-4">
          <mxGeometry x="-0.0372" y="-1" relative="1" as="geometry">
            <mxPoint as="offset" />
          </mxGeometry>
        </mxCell>
        <mxCell id="2D2PLknFibt0iXCQKBE8-5" style="edgeStyle=orthogonalEdgeStyle;rounded=0;orthogonalLoop=1;jettySize=auto;html=1;exitX=1;exitY=0.5;exitDx=0;exitDy=0;entryX=0;entryY=0.5;entryDx=0;entryDy=0;" edge="1" parent="1" source="2D2PLknFibt0iXCQKBE8-2" target="yBrq36ba2T_x7bs6eCfU-88">
          <mxGeometry relative="1" as="geometry" />
        </mxCell>
        <mxCell id="2D2PLknFibt0iXCQKBE8-11" value="1" style="edgeLabel;html=1;align=center;verticalAlign=middle;resizable=0;points=[];" vertex="1" connectable="0" parent="2D2PLknFibt0iXCQKBE8-5">
          <mxGeometry x="0.437" y="1" relative="1" as="geometry">
            <mxPoint as="offset" />
          </mxGeometry>
        </mxCell>
        <mxCell id="2D2PLknFibt0iXCQKBE8-12" value="N" style="edgeLabel;html=1;align=center;verticalAlign=middle;resizable=0;points=[];" vertex="1" connectable="0" parent="2D2PLknFibt0iXCQKBE8-5">
          <mxGeometry x="-0.7852" relative="1" as="geometry">
            <mxPoint as="offset" />
          </mxGeometry>
        </mxCell>
        <mxCell id="2D2PLknFibt0iXCQKBE8-13" value="Actividad" style="swimlane;childLayout=stackLayout;horizontal=1;startSize=20;horizontalStack=0;rounded=1;fontSize=14;fontStyle=0;strokeWidth=2;resizeParent=0;resizeLast=1;shadow=0;dashed=0;align=center;arcSize=4;whiteSpace=wrap;html=1;perimeterSpacing=0;strokeColor=#000000;fillColor=#FFCC99;fillStyle=auto;gradientColor=none;swimlaneFillColor=#FFFFFF;" vertex="1" parent="1">
          <mxGeometry x="735" y="300" width="180" height="120" as="geometry" />
        </mxCell>
        <mxCell id="2D2PLknFibt0iXCQKBE8-14" value="IdActidad (Integer)&amp;nbsp;&lt;span style=&quot;background-color: transparent; color: light-dark(rgb(0, 0, 0), rgb(255, 255, 255));&quot;&gt;&lt;font style=&quot;font-size: 10px;&quot;&gt;🔑&lt;/font&gt;&lt;br&gt;Nombre_Act (Varchar)&lt;/span&gt;&lt;div&gt;&lt;span style=&quot;background-color: transparent; color: light-dark(rgb(0, 0, 0), rgb(255, 255, 255));&quot;&gt;Costo. (Integer)&amp;nbsp;&lt;/span&gt;&lt;span style=&quot;background-color: transparent; color: light-dark(rgb(0, 0, 0), rgb(255, 255, 255));&quot;&gt;&amp;nbsp;&lt;/span&gt;&lt;/div&gt;" style="align=left;strokeColor=none;fillColor=none;spacingLeft=4;spacingRight=4;fontSize=12;verticalAlign=top;resizable=0;rotatable=0;part=1;html=1;whiteSpace=wrap;" vertex="1" parent="2D2PLknFibt0iXCQKBE8-13">
          <mxGeometry y="20" width="180" height="100" as="geometry" />
        </mxCell>
        <mxCell id="2D2PLknFibt0iXCQKBE8-15" value="Horario/Actividad" style="swimlane;childLayout=stackLayout;horizontal=1;startSize=20;horizontalStack=0;rounded=1;fontSize=14;fontStyle=0;strokeWidth=2;resizeParent=0;resizeLast=1;shadow=0;dashed=0;align=center;arcSize=4;whiteSpace=wrap;html=1;perimeterSpacing=0;strokeColor=#000000;fillColor=#FFCC99;fillStyle=auto;gradientColor=none;swimlaneFillColor=#FFFFFF;" vertex="1" parent="1">
          <mxGeometry x="965" y="300" width="180" height="120" as="geometry" />
        </mxCell>
        <mxCell id="2D2PLknFibt0iXCQKBE8-16" value="IdClase (Integer)&amp;nbsp;&amp;nbsp;&lt;span style=&quot;text-wrap-mode: nowrap; font-size: 9px; text-align: center;&quot;&gt;🗝️&lt;/span&gt;&lt;span style=&quot;background-color: transparent; color: light-dark(rgb(0, 0, 0), rgb(255, 255, 255));&quot;&gt;&lt;font style=&quot;font-size: 10px;&quot;&gt;&lt;br&gt;&lt;/font&gt;IdActividad (Integer)&amp;nbsp;&lt;/span&gt;&amp;nbsp;&lt;span style=&quot;text-wrap-mode: nowrap; font-size: 9px; text-align: center;&quot;&gt;🗝️&lt;/span&gt;" style="align=left;strokeColor=none;fillColor=none;spacingLeft=4;spacingRight=4;fontSize=12;verticalAlign=top;resizable=0;rotatable=0;part=1;html=1;whiteSpace=wrap;" vertex="1" parent="2D2PLknFibt0iXCQKBE8-15">
          <mxGeometry y="20" width="180" height="100" as="geometry" />
        </mxCell>
        <mxCell id="2D2PLknFibt0iXCQKBE8-17" value="Horario" style="swimlane;childLayout=stackLayout;horizontal=1;startSize=20;horizontalStack=0;rounded=1;fontSize=14;fontStyle=0;strokeWidth=2;resizeParent=0;resizeLast=1;shadow=0;dashed=0;align=center;arcSize=4;whiteSpace=wrap;html=1;perimeterSpacing=0;strokeColor=#000000;fillColor=#FFCC99;fillStyle=auto;gradientColor=none;swimlaneFillColor=#FFFFFF;" vertex="1" parent="1">
          <mxGeometry x="965" y="445" width="180" height="120" as="geometry" />
        </mxCell>
        <mxCell id="2D2PLknFibt0iXCQKBE8-18" value="&lt;span style=&quot;background-color: transparent; color: light-dark(rgb(0, 0, 0), rgb(255, 255, 255));&quot;&gt;IdHorario (Integer)&amp;nbsp;&lt;/span&gt;&amp;nbsp;&amp;nbsp;&lt;span style=&quot;color: light-dark(rgb(0, 0, 0), rgb(255, 255, 255)); background-color: transparent;&quot;&gt;&lt;font style=&quot;font-size: 10px;&quot;&gt;🔑&lt;/font&gt;&lt;/span&gt;&lt;div&gt;&lt;font&gt;Dia. (Varchar).&lt;/font&gt;&lt;/div&gt;&lt;div&gt;&lt;font&gt;HoraIn (Time).&lt;/font&gt;&lt;/div&gt;&lt;div&gt;&lt;font&gt;HoraFin (Time).&lt;/font&gt;&lt;/div&gt;" style="align=left;strokeColor=none;fillColor=none;spacingLeft=4;spacingRight=4;fontSize=12;verticalAlign=top;resizable=0;rotatable=0;part=1;html=1;whiteSpace=wrap;" vertex="1" parent="2D2PLknFibt0iXCQKBE8-17">
          <mxGeometry y="20" width="180" height="100" as="geometry" />
        </mxCell>
        <mxCell id="2D2PLknFibt0iXCQKBE8-21" style="edgeStyle=orthogonalEdgeStyle;rounded=0;orthogonalLoop=1;jettySize=auto;html=1;exitX=1;exitY=0.5;exitDx=0;exitDy=0;entryX=0;entryY=0.5;entryDx=0;entryDy=0;" edge="1" parent="1" source="2D2PLknFibt0iXCQKBE8-14" target="2D2PLknFibt0iXCQKBE8-16">
          <mxGeometry relative="1" as="geometry" />
        </mxCell>
        <mxCell id="2D2PLknFibt0iXCQKBE8-22" style="edgeStyle=orthogonalEdgeStyle;rounded=0;orthogonalLoop=1;jettySize=auto;html=1;exitX=0.5;exitY=1;exitDx=0;exitDy=0;entryX=0.5;entryY=0;entryDx=0;entryDy=0;" edge="1" parent="1" source="2D2PLknFibt0iXCQKBE8-16" target="2D2PLknFibt0iXCQKBE8-17">
          <mxGeometry relative="1" as="geometry" />
        </mxCell>
        <mxCell id="2D2PLknFibt0iXCQKBE8-24" value="Inscripto Actividad" style="swimlane;childLayout=stackLayout;horizontal=1;startSize=20;horizontalStack=0;rounded=1;fontSize=14;fontStyle=0;strokeWidth=2;resizeParent=0;resizeLast=1;shadow=0;dashed=0;align=center;arcSize=4;whiteSpace=wrap;html=1;perimeterSpacing=0;strokeColor=#000000;fillColor=#FFCC99;fillStyle=auto;gradientColor=none;swimlaneFillColor=#FFFFFF;" vertex="1" parent="1">
          <mxGeometry x="421" y="300" width="180" height="120" as="geometry" />
        </mxCell>
        <mxCell id="2D2PLknFibt0iXCQKBE8-25" value="IdSocio (Integer)&amp;nbsp;&lt;span style=&quot;color: light-dark(rgb(0, 0, 0), rgb(255, 255, 255)); background-color: transparent;&quot;&gt;&amp;nbsp;&lt;/span&gt;&lt;span style=&quot;color: light-dark(rgb(0, 0, 0), rgb(255, 255, 255)); text-align: center; text-wrap-mode: nowrap; background-color: transparent;&quot;&gt;&lt;font style=&quot;font-size: 9px;&quot;&gt;🗝️&lt;/font&gt;&lt;/span&gt;&lt;div&gt;IdActividad (Integer)&amp;nbsp;&lt;span style=&quot;background-color: transparent; color: light-dark(rgb(0, 0, 0), rgb(255, 255, 255));&quot;&gt;&amp;nbsp;&lt;/span&gt;&lt;span style=&quot;background-color: transparent; color: light-dark(rgb(0, 0, 0), rgb(255, 255, 255)); text-wrap-mode: nowrap; text-align: center;&quot;&gt;&lt;font style=&quot;&quot;&gt;&lt;font style=&quot;font-size: 10px;&quot;&gt;🗝️&lt;/font&gt;&lt;br&gt;&lt;font&gt;IdHorario (Integer)&amp;nbsp;&lt;/font&gt;&lt;/font&gt;&lt;/span&gt;&lt;span style=&quot;background-color: transparent; color: light-dark(rgb(0, 0, 0), rgb(255, 255, 255));&quot;&gt;&amp;nbsp;&lt;/span&gt;&lt;span style=&quot;background-color: transparent; color: light-dark(rgb(0, 0, 0), rgb(255, 255, 255)); text-wrap-mode: nowrap; text-align: center;&quot;&gt;&lt;font style=&quot;font-size: 9px;&quot;&gt;🗝️&lt;/font&gt;&lt;/span&gt;&lt;span style=&quot;text-align: center; background-color: transparent; color: light-dark(rgb(0, 0, 0), rgb(255, 255, 255)); text-wrap-mode: nowrap;&quot;&gt;IdPago (Integer)&amp;nbsp;&lt;/span&gt;&lt;span style=&quot;text-align: center; background-color: transparent; color: light-dark(rgb(0, 0, 0), rgb(255, 255, 255)); text-wrap-mode: nowrap; font-size: 9px;&quot;&gt;🗝️&lt;/span&gt;&lt;/div&gt;" style="align=left;strokeColor=none;fillColor=none;spacingLeft=4;spacingRight=4;fontSize=12;verticalAlign=top;resizable=0;rotatable=0;part=1;html=1;whiteSpace=wrap;" vertex="1" parent="2D2PLknFibt0iXCQKBE8-24">
          <mxGeometry y="20" width="180" height="100" as="geometry" />
        </mxCell>
        <mxCell id="2D2PLknFibt0iXCQKBE8-30" style="edgeStyle=orthogonalEdgeStyle;rounded=0;orthogonalLoop=1;jettySize=auto;html=1;exitX=1;exitY=0.5;exitDx=0;exitDy=0;entryX=0;entryY=0.5;entryDx=0;entryDy=0;" edge="1" parent="1" source="2D2PLknFibt0iXCQKBE8-25" target="2D2PLknFibt0iXCQKBE8-14">
          <mxGeometry relative="1" as="geometry" />
        </mxCell>
        <mxCell id="2D2PLknFibt0iXCQKBE8-32" value="N" style="edgeLabel;html=1;align=center;verticalAlign=middle;resizable=0;points=[];" vertex="1" connectable="0" parent="2D2PLknFibt0iXCQKBE8-30">
          <mxGeometry x="0.0046" y="1" relative="1" as="geometry">
            <mxPoint x="47" as="offset" />
          </mxGeometry>
        </mxCell>
        <mxCell id="2D2PLknFibt0iXCQKBE8-42" value="N" style="edgeLabel;html=1;align=center;verticalAlign=middle;resizable=0;points=[];" vertex="1" connectable="0" parent="2D2PLknFibt0iXCQKBE8-30">
          <mxGeometry x="-0.73" relative="1" as="geometry">
            <mxPoint as="offset" />
          </mxGeometry>
        </mxCell>
        <mxCell id="2D2PLknFibt0iXCQKBE8-33" style="edgeStyle=orthogonalEdgeStyle;rounded=0;orthogonalLoop=1;jettySize=auto;html=1;exitX=0.5;exitY=1;exitDx=0;exitDy=0;entryX=0;entryY=0.5;entryDx=0;entryDy=0;" edge="1" parent="1" source="2D2PLknFibt0iXCQKBE8-25" target="2D2PLknFibt0iXCQKBE8-18">
          <mxGeometry relative="1" as="geometry" />
        </mxCell>
        <mxCell id="2D2PLknFibt0iXCQKBE8-43" value="N" style="edgeLabel;html=1;align=center;verticalAlign=middle;resizable=0;points=[];" vertex="1" connectable="0" parent="2D2PLknFibt0iXCQKBE8-33">
          <mxGeometry x="-0.9505" y="-1" relative="1" as="geometry">
            <mxPoint as="offset" />
          </mxGeometry>
        </mxCell>
        <mxCell id="2D2PLknFibt0iXCQKBE8-44" value="N" style="edgeLabel;html=1;align=center;verticalAlign=middle;resizable=0;points=[];" vertex="1" connectable="0" parent="2D2PLknFibt0iXCQKBE8-33">
          <mxGeometry x="0.8326" y="-2" relative="1" as="geometry">
            <mxPoint as="offset" />
          </mxGeometry>
        </mxCell>
        <mxCell id="2D2PLknFibt0iXCQKBE8-36" value="Si un socio Participa en mas de 1&lt;br&gt;&amp;nbsp;Actividad se aplica un 10% de&amp;nbsp;&lt;div&gt;descuento a todas actividades&lt;/div&gt;" style="text;html=1;align=center;verticalAlign=middle;resizable=0;points=[];autosize=1;strokeColor=none;fillColor=none;" vertex="1" parent="1">
          <mxGeometry x="725" y="420" width="200" height="60" as="geometry" />
        </mxCell>
        <mxCell id="2D2PLknFibt0iXCQKBE8-45" value="Pileta" style="swimlane;childLayout=stackLayout;horizontal=1;startSize=20;horizontalStack=0;rounded=1;fontSize=14;fontStyle=0;strokeWidth=2;resizeParent=0;resizeLast=1;shadow=0;dashed=0;align=center;arcSize=4;whiteSpace=wrap;html=1;perimeterSpacing=0;strokeColor=#000000;fillColor=#FFCC99;fillStyle=auto;gradientColor=none;swimlaneFillColor=#FFFFFF;" vertex="1" parent="1">
          <mxGeometry x="735" y="-260" width="180" height="120" as="geometry" />
        </mxCell>
        <mxCell id="2D2PLknFibt0iXCQKBE8-46" value="&lt;div&gt;IdPileta (Integer).&amp;nbsp;&lt;span style=&quot;font-size: 9px; background-color: transparent; color: light-dark(rgb(0, 0, 0), rgb(255, 255, 255));&quot;&gt;🔑&lt;/span&gt;&lt;/div&gt;Tarifa Socio (Integer).&lt;div&gt;Tarifa No Socio (Integer)&lt;/div&gt;" style="align=left;strokeColor=none;fillColor=none;spacingLeft=4;spacingRight=4;fontSize=12;verticalAlign=top;resizable=0;rotatable=0;part=1;html=1;whiteSpace=wrap;" vertex="1" parent="2D2PLknFibt0iXCQKBE8-45">
          <mxGeometry y="20" width="180" height="100" as="geometry" />
        </mxCell>
        <mxCell id="2D2PLknFibt0iXCQKBE8-49" value="Uso Pileta" style="swimlane;childLayout=stackLayout;horizontal=1;startSize=20;horizontalStack=0;rounded=1;fontSize=14;fontStyle=0;strokeWidth=2;resizeParent=0;resizeLast=1;shadow=0;dashed=0;align=center;arcSize=4;whiteSpace=wrap;html=1;perimeterSpacing=0;strokeColor=#000000;fillColor=#FFCC99;fillStyle=auto;gradientColor=none;swimlaneFillColor=#FFFFFF;" vertex="1" parent="1">
          <mxGeometry x="420" y="-260" width="180" height="120" as="geometry" />
        </mxCell>
        <mxCell id="2D2PLknFibt0iXCQKBE8-50" value="&lt;div&gt;IdPileta (Integer).&amp;nbsp;&lt;span style=&quot;background-color: transparent; color: light-dark(rgb(0, 0, 0), rgb(255, 255, 255));&quot;&gt;&amp;nbsp;&lt;/span&gt;&lt;span style=&quot;text-align: center; background-color: transparent; color: light-dark(rgb(0, 0, 0), rgb(255, 255, 255)); text-wrap-mode: nowrap;&quot;&gt;&lt;font style=&quot;font-size: 9px;&quot;&gt;🗝️&lt;/font&gt;&lt;/span&gt;&lt;/div&gt;IdPersona (Integer)&amp;nbsp;&lt;span style=&quot;background-color: transparent; color: light-dark(rgb(0, 0, 0), rgb(255, 255, 255));&quot;&gt;&amp;nbsp;&lt;/span&gt;&lt;span style=&quot;background-color: transparent; color: light-dark(rgb(0, 0, 0), rgb(255, 255, 255));&quot;&gt;&amp;nbsp;&lt;/span&gt;&lt;span style=&quot;text-align: center; background-color: transparent; color: light-dark(rgb(0, 0, 0), rgb(255, 255, 255)); text-wrap-mode: nowrap;&quot;&gt;&lt;font style=&quot;font-size: 9px;&quot;&gt;🗝️&lt;/font&gt;&lt;/span&gt;&lt;div&gt;&lt;div&gt;&lt;div&gt;&lt;div&gt;Fecha (DATE).&lt;/div&gt;&lt;/div&gt;&lt;/div&gt;&lt;/div&gt;" style="align=left;strokeColor=none;fillColor=none;spacingLeft=4;spacingRight=4;fontSize=12;verticalAlign=top;resizable=0;rotatable=0;part=1;html=1;whiteSpace=wrap;" vertex="1" parent="2D2PLknFibt0iXCQKBE8-49">
          <mxGeometry y="20" width="180" height="100" as="geometry" />
        </mxCell>
        <mxCell id="2D2PLknFibt0iXCQKBE8-51" style="edgeStyle=orthogonalEdgeStyle;rounded=0;orthogonalLoop=1;jettySize=auto;html=1;exitX=1;exitY=0.5;exitDx=0;exitDy=0;entryX=0;entryY=0.5;entryDx=0;entryDy=0;" edge="1" parent="1" source="2D2PLknFibt0iXCQKBE8-50" target="2D2PLknFibt0iXCQKBE8-46">
          <mxGeometry relative="1" as="geometry" />
        </mxCell>
        <mxCell id="2D2PLknFibt0iXCQKBE8-52" style="edgeStyle=orthogonalEdgeStyle;rounded=0;orthogonalLoop=1;jettySize=auto;html=1;exitX=1;exitY=0.5;exitDx=0;exitDy=0;entryX=0;entryY=0.5;entryDx=0;entryDy=0;" edge="1" parent="1" source="yBrq36ba2T_x7bs6eCfU-81" target="2D2PLknFibt0iXCQKBE8-50">
          <mxGeometry relative="1" as="geometry" />
        </mxCell>
        <mxCell id="2D2PLknFibt0iXCQKBE8-57" value="Medio de Pago" style="swimlane;childLayout=stackLayout;horizontal=1;startSize=20;horizontalStack=0;rounded=1;fontSize=14;fontStyle=0;strokeWidth=2;resizeParent=0;resizeLast=1;shadow=0;dashed=0;align=center;arcSize=4;whiteSpace=wrap;html=1;perimeterSpacing=0;strokeColor=#000000;fillColor=#FFCC99;fillStyle=auto;gradientColor=none;swimlaneFillColor=#FFFFFF;" vertex="1" parent="1">
          <mxGeometry x="735" y="750" width="180" height="120" as="geometry" />
        </mxCell>
        <mxCell id="2D2PLknFibt0iXCQKBE8-58" value="IdMedPago (Integer)&amp;nbsp;&lt;span style=&quot;background-color: transparent; color: light-dark(rgb(0, 0, 0), rgb(255, 255, 255));&quot;&gt;&lt;font style=&quot;font-size: 10px;&quot;&gt;🔑&lt;/font&gt;&lt;br&gt;Nombre_Medio (Varchar).&lt;/span&gt;&lt;span style=&quot;background-color: transparent; color: light-dark(rgb(0, 0, 0), rgb(255, 255, 255));&quot;&gt;&amp;nbsp;&lt;/span&gt;&lt;span style=&quot;background-color: transparent; color: light-dark(rgb(0, 0, 0), rgb(255, 255, 255));&quot;&gt;&amp;nbsp;&lt;br&gt;&lt;/span&gt;" style="align=left;strokeColor=none;fillColor=none;spacingLeft=4;spacingRight=4;fontSize=12;verticalAlign=top;resizable=0;rotatable=0;part=1;html=1;whiteSpace=wrap;" vertex="1" parent="2D2PLknFibt0iXCQKBE8-57">
          <mxGeometry y="20" width="180" height="100" as="geometry" />
        </mxCell>
        <mxCell id="2D2PLknFibt0iXCQKBE8-60" value="Pagos" style="swimlane;childLayout=stackLayout;horizontal=1;startSize=20;horizontalStack=0;rounded=1;fontSize=14;fontStyle=0;strokeWidth=2;resizeParent=0;resizeLast=1;shadow=0;dashed=0;align=center;arcSize=4;whiteSpace=wrap;html=1;perimeterSpacing=0;strokeColor=#000000;fillColor=#FFCC99;fillStyle=auto;gradientColor=none;swimlaneFillColor=#FFFFFF;" vertex="1" parent="1">
          <mxGeometry x="421" y="580" width="180" height="120" as="geometry" />
        </mxCell>
        <mxCell id="2D2PLknFibt0iXCQKBE8-61" value="IdPago (Integer)&amp;nbsp;&lt;span style=&quot;background-color: transparent; color: light-dark(rgb(0, 0, 0), rgb(255, 255, 255));&quot;&gt;&lt;font style=&quot;font-size: 10px;&quot;&gt;🔑&lt;/font&gt;&lt;br&gt;MetodoPago (Integer)&amp;nbsp;&lt;/span&gt;&lt;span style=&quot;font-size: 9px; text-align: center; text-wrap-mode: nowrap;&quot;&gt;🗝️&lt;/span&gt;&lt;span style=&quot;background-color: transparent; color: light-dark(rgb(0, 0, 0), rgb(255, 255, 255));&quot;&gt;&lt;br&gt;FacturaGenerada.&amp;nbsp;&lt;/span&gt;" style="align=left;strokeColor=none;fillColor=none;spacingLeft=4;spacingRight=4;fontSize=12;verticalAlign=top;resizable=0;rotatable=0;part=1;html=1;whiteSpace=wrap;" vertex="1" parent="2D2PLknFibt0iXCQKBE8-60">
          <mxGeometry y="20" width="180" height="100" as="geometry" />
        </mxCell>
        <mxCell id="2D2PLknFibt0iXCQKBE8-70" value="Metodo Pago" style="swimlane;childLayout=stackLayout;horizontal=1;startSize=20;horizontalStack=0;rounded=1;fontSize=14;fontStyle=0;strokeWidth=2;resizeParent=0;resizeLast=1;shadow=0;dashed=0;align=center;arcSize=4;whiteSpace=wrap;html=1;perimeterSpacing=0;strokeColor=#000000;fillColor=#FFCC99;fillStyle=auto;gradientColor=none;swimlaneFillColor=#FFFFFF;" vertex="1" parent="1">
          <mxGeometry x="421" y="750" width="180" height="120" as="geometry" />
        </mxCell>
        <mxCell id="2D2PLknFibt0iXCQKBE8-71" value="&lt;span style=&quot;background-color: transparent; color: light-dark(rgb(0, 0, 0), rgb(255, 255, 255));&quot;&gt;MetodoPago (Integer)&amp;nbsp;&lt;/span&gt;&amp;nbsp;&lt;span style=&quot;color: light-dark(rgb(0, 0, 0), rgb(255, 255, 255)); background-color: transparent;&quot;&gt;&lt;font style=&quot;font-size: 10px;&quot;&gt;🔑&lt;/font&gt;&lt;/span&gt;&lt;div&gt;&lt;span style=&quot;color: light-dark(rgb(0, 0, 0), rgb(255, 255, 255)); background-color: transparent;&quot;&gt;&lt;font&gt;IdMedPago (Integer)&amp;nbsp;&lt;/font&gt;&lt;/span&gt;&lt;span style=&quot;background-color: transparent; color: light-dark(rgb(0, 0, 0), rgb(255, 255, 255));&quot;&gt;&amp;nbsp;&lt;/span&gt;&lt;span style=&quot;background-color: transparent; color: light-dark(rgb(0, 0, 0), rgb(255, 255, 255)); text-wrap-mode: nowrap; font-size: 9px; text-align: center;&quot;&gt;🗝️&lt;/span&gt;&lt;/div&gt;&lt;div&gt;&lt;span style=&quot;background-color: transparent; color: light-dark(rgb(0, 0, 0), rgb(255, 255, 255)); text-wrap-mode: nowrap; text-align: center;&quot;&gt;&lt;font&gt;Numero de cuenta (Integer).&lt;/font&gt;&lt;/span&gt;&lt;/div&gt;&lt;div&gt;&lt;span style=&quot;background-color: transparent; color: light-dark(rgb(0, 0, 0), rgb(255, 255, 255)); text-wrap-mode: nowrap; text-align: center;&quot;&gt;&lt;font&gt;Tipo de cuenta (Varchar)&amp;nbsp;&lt;/font&gt;&lt;/span&gt;&lt;span style=&quot;font-family: monospace; font-size: 9px; text-align: center;&quot;&gt;🔓&amp;nbsp;&lt;/span&gt;&lt;/div&gt;&lt;div&gt;&lt;span style=&quot;font-family: monospace; font-size: 9px; text-align: center;&quot;&gt;(Si IdMedPago coincide con tarjeta de credito)&lt;/span&gt;&lt;span style=&quot;background-color: transparent; color: light-dark(rgb(0, 0, 0), rgb(255, 255, 255)); text-wrap-mode: nowrap; text-align: center;&quot;&gt;&lt;font&gt;&lt;br&gt;&lt;br&gt;&lt;/font&gt;&lt;/span&gt;&lt;/div&gt;" style="align=left;strokeColor=none;fillColor=none;spacingLeft=4;spacingRight=4;fontSize=12;verticalAlign=top;resizable=0;rotatable=0;part=1;html=1;whiteSpace=wrap;" vertex="1" parent="2D2PLknFibt0iXCQKBE8-70">
          <mxGeometry y="20" width="180" height="100" as="geometry" />
        </mxCell>
        <mxCell id="2D2PLknFibt0iXCQKBE8-72" style="edgeStyle=orthogonalEdgeStyle;rounded=0;orthogonalLoop=1;jettySize=auto;html=1;exitX=1;exitY=0.5;exitDx=0;exitDy=0;entryX=0;entryY=0.5;entryDx=0;entryDy=0;" edge="1" parent="1" source="2D2PLknFibt0iXCQKBE8-71" target="2D2PLknFibt0iXCQKBE8-58">
          <mxGeometry relative="1" as="geometry" />
        </mxCell>
        <mxCell id="2D2PLknFibt0iXCQKBE8-73" style="edgeStyle=orthogonalEdgeStyle;rounded=0;orthogonalLoop=1;jettySize=auto;html=1;exitX=0.5;exitY=1;exitDx=0;exitDy=0;entryX=0.5;entryY=0;entryDx=0;entryDy=0;" edge="1" parent="1" source="2D2PLknFibt0iXCQKBE8-61" target="2D2PLknFibt0iXCQKBE8-70">
          <mxGeometry relative="1" as="geometry" />
        </mxCell>
        <mxCell id="2D2PLknFibt0iXCQKBE8-75" style="edgeStyle=orthogonalEdgeStyle;rounded=0;orthogonalLoop=1;jettySize=auto;html=1;exitX=0.25;exitY=1;exitDx=0;exitDy=0;entryX=0.25;entryY=0;entryDx=0;entryDy=0;" edge="1" parent="1" source="2D2PLknFibt0iXCQKBE8-25" target="2D2PLknFibt0iXCQKBE8-60">
          <mxGeometry relative="1" as="geometry" />
        </mxCell>
      </root>
    </mxGraphModel>
  </diagram>
</mxfile>
